<svg width="34" height="34" viewBox="0 0 34 34" fill="none" xmlns="http://www.w3.org/2000/svg">
<path d="M9.76e-05 17.0001C0.000151503 26.3889 7.61127 34 17 34C26.3889 34 34 26.3888 34 17C34 7.61119 26.3888 1.29928e-05 17 2.90203e-05C7.61118 4.50478e-05 4.36972e-05 7.61127 9.76e-05 17.0001Z" fill="#769FCD"/>
<path d="M17.8313 22.9231C11.4711 22.9231 7.84342 18.4763 7.69226 11.0769H10.8782C10.9828 16.5079 13.3315 18.8083 15.1919 19.2826V11.0769H18.1918V15.7608C20.0289 15.5592 21.959 13.4248 22.6101 11.0769H25.61C25.3646 12.2946 24.8755 13.4475 24.1733 14.4636C23.4711 15.4797 22.5708 16.3371 21.5288 16.9822C22.6919 17.5716 23.7192 18.4059 24.543 19.4299C25.3668 20.454 25.9682 21.6445 26.3076 22.9231H23.0055C22.7008 21.8126 22.0814 20.8185 21.2251 20.0654C20.3688 19.3124 19.3136 18.8338 18.1918 18.6897V22.9231H17.8313Z" fill="white"/>
</svg>
