<svg width="34" height="34" viewBox="0 0 34 34" fill="none" xmlns="http://www.w3.org/2000/svg">
<path d="M17 3.68023e-05C7.61119 1.6477e-05 2.6131e-06 7.61118 5.83653e-06 17C9.05994e-06 26.3889 7.61117 34 17 34C26.3888 34 34 26.3889 34 17C34 7.6112 26.3889 5.71276e-05 17 3.68023e-05Z" fill="#76CD7F"/>
<path d="M16.9965 9.10376C15.5417 9.10431 14.1154 9.50678 12.8749 10.2667C11.6343 11.0267 10.6278 12.1146 9.96641 13.4105C9.30498 14.7064 9.01434 16.1598 9.12656 17.6104C9.23877 19.061 9.74948 20.4524 10.6023 21.6311L9.61527 24.565L12.6534 23.5936C13.6812 24.2716 14.8533 24.6999 16.0761 24.8442C17.2989 24.9885 18.5385 24.8448 19.6959 24.4246C20.8533 24.0045 21.8964 23.3194 22.7419 22.4242C23.5873 21.529 24.2118 20.4485 24.5654 19.2689C24.9189 18.0893 24.9918 16.8434 24.7781 15.6307C24.5644 14.4179 24.0701 13.272 23.3347 12.2843C22.5993 11.2967 21.6432 10.4947 20.5427 9.94243C19.4421 9.39019 18.2278 9.10299 16.9965 9.10376ZM21.1934 20.2727L20.3525 21.1138C19.4681 21.9983 17.1228 21.0249 15.0441 18.942C12.9653 16.859 12.0336 14.5194 12.8745 13.6448L13.7155 12.8037C13.8784 12.654 14.0915 12.5709 14.3127 12.5709C14.5339 12.5709 14.747 12.654 14.9098 12.8037L16.1496 14.0397C16.2507 14.1379 16.3248 14.2606 16.365 14.3957C16.4051 14.5309 16.4098 14.6741 16.3787 14.8117C16.3476 14.9492 16.2817 15.0764 16.1873 15.1812C16.0929 15.2859 15.9732 15.3647 15.8397 15.4099C15.6426 15.4728 15.4775 15.6093 15.3786 15.791C15.2796 15.9727 15.2546 16.1855 15.3086 16.3852C15.5297 17.3131 16.7241 18.4642 17.6104 18.6853C17.809 18.727 18.016 18.6956 18.1933 18.597C18.3706 18.4983 18.5064 18.339 18.5758 18.1483C18.6205 18.0128 18.6995 17.8912 18.8052 17.7954C18.9109 17.6995 19.0396 17.6327 19.1788 17.6015C19.3181 17.5703 19.463 17.5757 19.5995 17.6172C19.736 17.6587 19.8594 17.7349 19.9577 17.8383L21.1954 19.0782C21.3448 19.2413 21.4276 19.4546 21.4272 19.6758C21.4268 19.8971 21.3434 20.1101 21.1934 20.2727Z" fill="white"/>
</svg>
