<svg width="34" height="34" viewBox="0 0 34 34" fill="none" xmlns="http://www.w3.org/2000/svg">
<path d="M17.0001 2.25353e-05C7.61126 1.00894e-05 0.000112494 7.61114 7.24701e-05 16.9999C3.24461e-05 26.3888 7.61119 34 17 34C26.3889 34 34 26.3888 34 17C34 7.6112 26.3889 3.49812e-05 17.0001 2.25353e-05Z" fill="#60BBE2"/>
<path d="M7.82129 16.635L24.138 10.3438C24.8953 10.0703 25.5567 10.5286 25.3113 11.6737L25.3127 11.6723L22.5345 24.7609C22.3286 25.6888 21.7772 25.9145 21.0058 25.4773L16.775 22.3592L14.7344 24.3251C14.5087 24.5508 14.3183 24.7412 13.8812 24.7412L14.1816 20.4356L22.0226 13.3519C22.3639 13.0515 21.9464 12.8823 21.4965 13.1813L11.8067 19.282L7.6295 17.979C6.7227 17.6913 6.70296 17.0722 7.82129 16.635Z" fill="white"/>
</svg>
