<svg width="18" height="18" viewBox="0 0 18 18" fill="none" xmlns="http://www.w3.org/2000/svg">
<rect width="18" height="18" rx="5" fill="#DCCBC0" fill-opacity="0.2"/>
<path d="M10.5625 8.06274C10.5625 8.56002 10.3649 9.03694 10.0133 9.38857C9.66166 9.7402 9.18475 9.93774 8.68747 9.93774C8.19019 9.93774 7.71327 9.7402 7.36164 9.38857C7.01001 9.03694 6.81247 8.56002 6.81247 8.06274C6.81247 7.56546 7.01001 7.08855 7.36164 6.73692C7.71327 6.38529 8.19019 6.18774 8.68747 6.18774C9.18475 6.18774 9.66166 6.38529 10.0133 6.73692C10.3649 7.08855 10.5625 7.56546 10.5625 8.06274Z" stroke="#9D7E6C" stroke-linecap="round" stroke-linejoin="round"/>
<path d="M13.375 8.06262C13.375 12.5264 8.68747 15.0939 8.68747 15.0939C8.68747 15.0939 3.99997 12.5264 3.99997 8.06262C3.99997 6.81942 4.49383 5.62714 5.37291 4.74806C6.25198 3.86898 7.44427 3.37512 8.68747 3.37512C9.93067 3.37512 11.123 3.86898 12.002 4.74806C12.8811 5.62714 13.375 6.81942 13.375 8.06262Z" stroke="#9D7E6C" stroke-linecap="round" stroke-linejoin="round"/>
</svg>
