<svg width="18" height="18" viewBox="0 0 18 18" fill="none" xmlns="http://www.w3.org/2000/svg">
<rect width="18" height="18" rx="5" fill="#DCCBC0" fill-opacity="0.2"/>
<g clip-path="url(#clip0_16_52)">
<path fill-rule="evenodd" clip-rule="evenodd" d="M11.4741 14.2485C10.7168 14.2206 8.57069 13.9241 6.32304 11.6774C4.07592 9.43025 3.77984 7.28506 3.75144 6.52741C3.70937 5.37279 4.59392 4.2513 5.61572 3.81333C5.73876 3.76021 5.87351 3.73998 6.00673 3.75464C6.13996 3.76929 6.26708 3.81833 6.37563 3.89693C7.21705 4.50999 7.79763 5.43747 8.29617 6.16672C8.40587 6.32694 8.45277 6.52191 8.42794 6.71448C8.40311 6.90705 8.30829 7.08375 8.16155 7.21093L7.13554 7.97278C7.08597 8.00857 7.05108 8.06113 7.03734 8.1207C7.02361 8.18026 7.03196 8.24279 7.06086 8.29666C7.2933 8.71887 7.70665 9.3477 8.17995 9.8209C8.65378 10.2941 9.31219 10.7347 9.76393 10.9934C9.82057 11.0252 9.88724 11.0341 9.95023 11.0182C10.0132 11.0024 10.0677 10.963 10.1026 10.9082L10.7705 9.89188C10.8933 9.72881 11.0744 9.61956 11.276 9.58703C11.4775 9.55449 11.6838 9.60118 11.8517 9.71732C12.5916 10.2294 13.4551 10.7999 14.0873 11.6091C14.1723 11.7184 14.2263 11.8485 14.2438 11.9859C14.2613 12.1232 14.2416 12.2628 14.1867 12.3899C13.7465 13.4167 12.6327 14.2911 11.4741 14.2485Z" stroke="#9D7E6C"/>
</g>
<defs>
<clipPath id="clip0_16_52">
<rect width="15" height="15" fill="white" transform="translate(1.5 1.5)"/>
</clipPath>
</defs>
</svg>
